<?xml version="1.0" standalone="no"?>
<!DOCTYPE svg PUBLIC "-//W3C//DTD SVG 1.0//EN" "http://www.w3.org/TR/2001/REC-SVG-20010904/DTD/svg10.dtd">
<svg width="765" height="724" viewBox="0 0 765 724" xmlns="http://www.w3.org/2000/svg" xmlns:svg="http://www.w3.org/2000/svg">
<title>Three pentagonal fractals.</title>
<rect width="765" height="724" fill="#ffffff"/>
<g fill="#00bb00">
<path transform="translate(10,475) scale(0.24,-0.24)" d="M0,587.459
L190.983,726.217
L381.966,587.46
L309.017,811.973
L500,950.731
L690.983,811.973
L618.034,587.46
L809.017,726.217
L1000,587.459
L927.051,362.945
H690.983
L881.966,224.188
L809.017,-0.325
H572.949
L500,224.188
L427.051,-0.325
H190.983
L118.034,224.188
L309.017,362.945
H72.9492
L0,587.459Z"/>
<path transform="translate(262,475) scale(0.24,-0.24)" d="M0,587.459
L72.9492,640.46
L145.898,587.46
L118.034,673.216
L190.983,726.217
L263.932,673.216
L236.068,587.46
L309.017,640.46
L381.966,587.46
L354.102,673.216
L427.051,726.217
H336.881
L309.017,811.974
L381.966,864.974
L454.915,811.974
L427.051,897.73
L500,950.731
L572.949,897.73
L545.085,811.974
L618.034,864.974
L690.983,811.974
L663.119,726.217
H572.949
L645.898,673.216
L618.034,587.46
L690.983,640.46
L763.932,587.46
L736.068,673.216
L809.017,726.217
L881.966,673.216
L854.102,587.46
L927.051,640.46
L1000,587.459
L972.136,501.703
H881.966
L954.915,448.702
L927.051,362.946
H836.881
L809.017,448.702
L781.153,362.946
H690.983
L763.932,309.945
L736.068,224.189
L809.017,277.189
L881.966,224.189
L854.102,138.432
H763.932
L836.881,85.4307
L809.017,-0.325
H718.847
L690.983,85.4307
L663.119,-0.325
H572.948
L545.085,85.4307
L618.034,138.432
H527.864
L500,224.189
L472.136,138.432
H381.966
L454.915,85.4307
L427.052,-0.325
H336.881
L309.017,85.4307
L281.153,-0.325
H190.983
L163.119,85.4307
L236.068,138.432
H145.898
L118.034,224.189
L190.983,277.189
L263.932,224.189
L236.068,309.945
L309.017,362.946
H218.847
L190.983,448.702
L163.119,362.946
H72.9492
L45.085,448.702
L118.034,501.703
H27.8643
L0,587.459Z
M472.136,587.46
L500,501.703
L527.864,587.46
L500,673.216
L472.136,587.46Z
M572.949,448.702
H663.119
L736.068,501.703
H645.898
L572.949,448.702Z
M545.085,362.946
L572.948,277.189
L645.898,224.189
L618.034,309.945
L545.085,362.946Z
M354.102,224.189
L427.052,277.189
L454.915,362.946
L381.966,309.945
L354.102,224.189Z
M263.932,501.703
L336.881,448.702
H427.051
L354.102,501.703
H263.932Z"/>
<path transform="translate(514,475) scale(0.24,-0.24)" d="M500,950.731
L472.136,930.486
L482.779,897.73
H517.221
L527.864,930.486
L500,950.731Z
M482.779,897.73
L472.136,864.974
L500,844.73
L527.864,864.974
L517.221,897.73
H482.779Z
M454.915,917.975
L427.051,897.73
L437.694,864.974
H472.135
L482.779,897.73
L454.915,917.975Z
M482.779,897.73
L472.136,864.974
L500,844.73
L527.864,864.974
L517.221,897.73
H482.779Z
M472.136,864.974
L444.272,844.729
L454.915,811.974
H489.356
L500,844.729
L472.136,864.974Z
M482.779,897.73
L472.136,864.974
L500,844.73
L527.864,864.974
L517.221,897.73
H482.779Z
M527.864,864.974
L500,844.729
L510.643,811.974
H545.085
L555.728,844.729
L527.864,864.974Z
M482.779,897.73
L472.136,864.974
L500,844.73
L527.864,864.974
L517.221,897.73
H482.779Z
M545.085,917.975
L517.221,897.73
L527.864,864.974
H562.306
L572.949,897.73
L545.085,917.975Z
M482.779,897.73
L472.136,864.974
L500,844.73
L527.864,864.974
L517.221,897.73
H482.779Z
M381.966,864.974
L354.102,844.73
L364.745,811.974
H399.187
L409.83,844.73
L381.966,864.974Z
M364.745,811.974
L354.102,779.218
L381.966,758.973
L409.83,779.218
L399.187,811.974
H364.745Z
M336.881,832.218
L309.017,811.974
L319.66,779.218
H354.101
L364.745,811.974
L336.881,832.218Z
M364.745,811.974
L354.102,779.218
L381.966,758.973
L409.83,779.218
L399.187,811.974
H364.745Z
M354.102,779.217
L326.238,758.973
L336.881,726.217
H371.322
L381.966,758.973
L354.102,779.217Z
M364.745,811.974
L354.102,779.218
L381.966,758.973
L409.83,779.218
L399.187,811.974
H364.745Z
M409.83,779.217
L381.966,758.973
L392.609,726.217
H427.051
L437.694,758.973
L409.83,779.217Z
M364.745,811.974
L354.102,779.218
L381.966,758.973
L409.83,779.218
L399.187,811.974
H364.745Z
M427.051,832.218
L399.187,811.974
L409.83,779.218
H444.271
L454.915,811.974
L427.051,832.218Z
M364.745,811.974
L354.102,779.218
L381.966,758.973
L409.83,779.218
L399.187,811.974
H364.745Z
M427.051,726.217
L399.187,705.972
L409.83,673.217
H444.271
L454.915,705.972
L427.051,726.217Z
M409.83,673.216
L399.187,640.46
L427.051,620.216
L454.915,640.46
L444.271,673.216
H409.83Z
M381.966,693.461
L354.102,673.216
L364.745,640.46
H399.186
L409.83,673.216
L381.966,693.461Z
M409.83,673.216
L399.187,640.46
L427.051,620.216
L454.915,640.46
L444.271,673.216
H409.83Z
M399.187,640.46
L371.323,620.216
L381.966,587.46
H416.407
L427.051,620.216
L399.187,640.46Z
M409.83,673.216
L399.187,640.46
L427.051,620.216
L454.915,640.46
L444.271,673.216
H409.83Z
M454.915,640.46
L427.051,620.216
L437.694,587.46
H472.135
L482.779,620.216
L454.915,640.46Z
M409.83,673.216
L399.187,640.46
L427.051,620.216
L454.915,640.46
L444.271,673.216
H409.83Z
M472.136,693.461
L444.272,673.216
L454.915,640.46
H489.356
L500,673.216
L472.136,693.461Z
M409.83,673.216
L399.187,640.46
L427.051,620.216
L454.915,640.46
L444.271,673.216
H409.83Z
M572.949,726.217
L545.085,705.972
L555.728,673.217
H590.17
L600.813,705.972
L572.949,726.217Z
M555.728,673.216
L545.085,640.46
L572.949,620.216
L600.813,640.46
L590.17,673.216
H555.728Z
M527.864,693.461
L500,673.216
L510.643,640.46
H545.084
L555.728,673.216
L527.864,693.461Z
M555.728,673.216
L545.085,640.46
L572.949,620.216
L600.813,640.46
L590.17,673.216
H555.728Z
M545.085,640.46
L517.221,620.216
L527.864,587.46
H562.305
L572.949,620.216
L545.085,640.46Z
M555.728,673.216
L545.085,640.46
L572.949,620.216
L600.813,640.46
L590.17,673.216
H555.728Z
M600.813,640.46
L572.949,620.216
L583.592,587.46
H618.034
L628.677,620.216
L600.813,640.46Z
M555.728,673.216
L545.085,640.46
L572.949,620.216
L600.813,640.46
L590.17,673.216
H555.728Z
M618.034,693.461
L590.17,673.216
L600.813,640.46
H635.255
L645.898,673.216
L618.034,693.461Z
M555.728,673.216
L545.085,640.46
L572.949,620.216
L600.813,640.46
L590.17,673.216
H555.728Z
M618.034,864.974
L590.17,844.73
L600.813,811.974
H635.255
L645.898,844.73
L618.034,864.974Z
M600.813,811.974
L590.17,779.218
L618.034,758.973
L645.898,779.218
L635.255,811.974
H600.813Z
M572.949,832.218
L545.085,811.974
L555.728,779.218
H590.169
L600.813,811.974
L572.949,832.218Z
M600.813,811.974
L590.17,779.218
L618.034,758.973
L645.898,779.218
L635.255,811.974
H600.813Z
M590.17,779.217
L562.306,758.973
L572.949,726.217
H607.39
L618.034,758.973
L590.17,779.217Z
M600.813,811.974
L590.17,779.218
L618.034,758.973
L645.898,779.218
L635.255,811.974
H600.813Z
M645.898,779.217
L618.034,758.973
L628.677,726.217
H663.119
L673.762,758.973
L645.898,779.217Z
M600.813,811.974
L590.17,779.218
L618.034,758.973
L645.898,779.218
L635.255,811.974
H600.813Z
M663.119,832.218
L635.255,811.974
L645.898,779.218
H680.34
L690.983,811.974
L663.119,832.218Z
M600.813,811.974
L590.17,779.218
L618.034,758.973
L645.898,779.218
L635.255,811.974
H600.813Z
M454.915,811.974
L444.272,779.218
L472.136,758.973
L500,779.218
L489.356,811.974
H454.915Z
M500,779.218
L472.136,758.973
L482.779,726.217
H517.221
L527.864,758.973
L500,779.218Z
M437.694,758.973
L427.051,726.217
L454.915,705.973
L482.779,726.217
L472.135,758.973
H437.694Z
M500,779.218
L472.136,758.973
L482.779,726.217
H517.221
L527.864,758.973
L500,779.218Z
M482.779,726.217
L472.136,693.461
L500,673.217
L527.864,693.461
L517.221,726.217
H482.779Z
M500,779.218
L472.136,758.973
L482.779,726.217
H517.221
L527.864,758.973
L500,779.218Z
M527.864,758.973
L517.221,726.217
L545.085,705.973
L572.949,726.217
L562.306,758.973
H527.864Z
M500,779.218
L472.136,758.973
L482.779,726.217
H517.221
L527.864,758.973
L500,779.218Z
M510.643,811.974
L500,779.218
L527.864,758.973
L555.728,779.218
L545.085,811.974
H510.643Z
M500,779.218
L472.136,758.973
L482.779,726.217
H517.221
L527.864,758.973
L500,779.218Z
M190.983,726.217
L163.119,705.972
L173.762,673.216
H208.204
L218.847,705.972
L190.983,726.217Z
M173.762,673.216
L163.119,640.46
L190.983,620.216
L218.847,640.46
L208.204,673.216
H173.762Z
M145.898,693.46
L118.034,673.216
L128.677,640.46
H163.118
L173.762,673.216
L145.898,693.46Z
M173.762,673.216
L163.119,640.46
L190.983,620.216
L218.847,640.46
L208.204,673.216
H173.762Z
M163.119,640.46
L135.255,620.215
L145.898,587.459
H180.339
L190.983,620.215
L163.119,640.46Z
M173.762,673.216
L163.119,640.46
L190.983,620.216
L218.847,640.46
L208.204,673.216
H173.762Z
M218.847,640.46
L190.983,620.215
L201.626,587.459
H236.068
L246.711,620.215
L218.847,640.46Z
M173.762,673.216
L163.119,640.46
L190.983,620.216
L218.847,640.46
L208.204,673.216
H173.762Z
M236.068,693.46
L208.204,673.216
L218.847,640.46
H253.289
L263.932,673.216
L236.068,693.46Z
M173.762,673.216
L163.119,640.46
L190.983,620.216
L218.847,640.46
L208.204,673.216
H173.762Z
M72.9487,640.46
L45.0847,620.216
L55.728,587.46
H90.1694
L100.813,620.216
L72.9487,640.46Z
M55.728,587.459
L45.0847,554.704
L72.9487,534.459
L100.813,554.704
L90.1694,587.459
H55.728Z
M27.8635,607.704
L0,587.459
L10.6428,554.704
H45.0842
L55.7275,587.459
L27.8635,607.704Z
M55.728,587.459
L45.0847,554.704
L72.9487,534.459
L100.813,554.704
L90.1694,587.459
H55.728Z
M45.0845,554.703
L17.2205,534.459
L27.8638,501.703
H62.3052
L72.9485,534.459
L45.0845,554.703Z
M55.728,587.459
L45.0847,554.704
L72.9487,534.459
L100.813,554.704
L90.1694,587.459
H55.728Z
M100.813,554.703
L72.9487,534.459
L83.592,501.703
H118.033
L128.677,534.459
L100.813,554.703Z
M55.728,587.459
L45.0847,554.704
L72.9487,534.459
L100.813,554.704
L90.1694,587.459
H55.728Z
M118.034,607.704
L90.1697,587.459
L100.813,554.704
H135.254
L145.898,587.459
L118.034,607.704Z
M55.728,587.459
L45.0847,554.704
L72.9487,534.459
L100.813,554.704
L90.1694,587.459
H55.728Z
M118.034,501.703
L90.1697,481.458
L100.813,448.702
H135.254
L145.898,481.458
L118.034,501.703Z
M100.813,448.702
L90.1697,415.946
L118.034,395.702
L145.898,415.946
L135.254,448.702
H100.813Z
M72.9485,468.947
L45.0845,448.702
L55.7278,415.946
H90.1692
L100.813,448.702
L72.9485,468.947Z
M100.813,448.702
L90.1697,415.946
L118.034,395.702
L145.898,415.946
L135.254,448.702
H100.813Z
M90.1694,415.946
L62.3054,395.701
L72.9487,362.946
H107.39
L118.033,395.701
L90.1694,415.946Z
M100.813,448.702
L90.1697,415.946
L118.034,395.702
L145.898,415.946
L135.254,448.702
H100.813Z
M145.898,415.946
L118.034,395.701
L128.677,362.946
H163.118
L173.762,395.701
L145.898,415.946Z
M100.813,448.702
L90.1697,415.946
L118.034,395.702
L145.898,415.946
L135.254,448.702
H100.813Z
M163.119,468.947
L135.255,448.702
L145.898,415.946
H180.339
L190.983,448.702
L163.119,468.947Z
M100.813,448.702
L90.1697,415.946
L118.034,395.702
L145.898,415.946
L135.254,448.702
H100.813Z
M263.932,501.703
L236.068,481.458
L246.711,448.702
H281.153
L291.796,481.458
L263.932,501.703Z
M246.711,448.702
L236.068,415.946
L263.932,395.702
L291.796,415.946
L281.153,448.702
H246.711Z
M218.847,468.947
L190.983,448.702
L201.626,415.946
H236.067
L246.711,448.702
L218.847,468.947Z
M246.711,448.702
L236.068,415.946
L263.932,395.702
L291.796,415.946
L281.153,448.702
H246.711Z
M236.068,415.946
L208.204,395.701
L218.847,362.946
H253.288
L263.932,395.701
L236.068,415.946Z
M246.711,448.702
L236.068,415.946
L263.932,395.702
L291.796,415.946
L281.153,448.702
H246.711Z
M291.796,415.946
L263.932,395.701
L274.575,362.946
H309.017
L319.66,395.701
L291.796,415.946Z
M246.711,448.702
L236.068,415.946
L263.932,395.702
L291.796,415.946
L281.153,448.702
H246.711Z
M309.017,468.947
L281.153,448.702
L291.796,415.946
H326.238
L336.881,448.702
L309.017,468.947Z
M246.711,448.702
L236.068,415.946
L263.932,395.702
L291.796,415.946
L281.153,448.702
H246.711Z
M309.017,640.46
L281.153,620.216
L291.796,587.46
H326.238
L336.881,620.216
L309.017,640.46Z
M291.796,587.459
L281.153,554.704
L309.017,534.459
L336.881,554.704
L326.238,587.459
H291.796Z
M263.932,607.704
L236.068,587.459
L246.711,554.704
H281.152
L291.796,587.459
L263.932,607.704Z
M291.796,587.459
L281.153,554.704
L309.017,534.459
L336.881,554.704
L326.238,587.459
H291.796Z
M281.153,554.703
L253.289,534.459
L263.932,501.703
H298.373
L309.017,534.459
L281.153,554.703Z
M291.796,587.459
L281.153,554.704
L309.017,534.459
L336.881,554.704
L326.238,587.459
H291.796Z
M336.881,554.703
L309.017,534.459
L319.66,501.703
H354.102
L364.745,534.459
L336.881,554.703Z
M291.796,587.459
L281.153,554.704
L309.017,534.459
L336.881,554.704
L326.238,587.459
H291.796Z
M354.102,607.704
L326.238,587.459
L336.881,554.704
H371.323
L381.966,587.459
L354.102,607.704Z
M291.796,587.459
L281.153,554.704
L309.017,534.459
L336.881,554.704
L326.238,587.459
H291.796Z
M145.898,587.459
L135.255,554.704
L163.119,534.459
L190.983,554.704
L180.339,587.459
H145.898Z
M190.983,554.703
L163.119,534.459
L173.762,501.703
H208.204
L218.847,534.459
L190.983,554.703Z
M128.677,534.459
L118.034,501.703
L145.898,481.458
L173.762,501.703
L163.118,534.459
H128.677Z
M190.983,554.703
L163.119,534.459
L173.762,501.703
H208.204
L218.847,534.459
L190.983,554.703Z
M173.762,501.703
L163.119,468.947
L190.983,448.702
L218.847,468.947
L208.204,501.703
H173.762Z
M190.983,554.703
L163.119,534.459
L173.762,501.703
H208.204
L218.847,534.459
L190.983,554.703Z
M218.847,534.459
L208.204,501.703
L236.068,481.458
L263.932,501.703
L253.289,534.459
H218.847Z
M190.983,554.703
L163.119,534.459
L173.762,501.703
H208.204
L218.847,534.459
L190.983,554.703Z
M201.626,587.459
L190.983,554.704
L218.847,534.459
L246.711,554.704
L236.068,587.459
H201.626Z
M190.983,554.703
L163.119,534.459
L173.762,501.703
H208.204
L218.847,534.459
L190.983,554.703Z
M309.017,362.945
L281.153,342.701
L291.796,309.945
H326.238
L336.881,342.701
L309.017,362.945Z
M291.796,309.945
L281.153,277.189
L309.017,256.945
L336.881,277.189
L326.238,309.945
H291.796Z
M263.932,330.189
L236.068,309.945
L246.711,277.189
H281.152
L291.796,309.945
L263.932,330.189Z
M291.796,309.945
L281.153,277.189
L309.017,256.945
L336.881,277.189
L326.238,309.945
H291.796Z
M281.153,277.188
L253.289,256.944
L263.932,224.188
H298.373
L309.017,256.944
L281.153,277.188Z
M291.796,309.945
L281.153,277.189
L309.017,256.945
L336.881,277.189
L326.238,309.945
H291.796Z
M336.881,277.188
L309.017,256.944
L319.66,224.188
H354.102
L364.745,256.944
L336.881,277.188Z
M291.796,309.945
L281.153,277.189
L309.017,256.945
L336.881,277.189
L326.238,309.945
H291.796Z
M354.102,330.189
L326.238,309.945
L336.881,277.189
H371.323
L381.966,309.945
L354.102,330.189Z
M291.796,309.945
L281.153,277.189
L309.017,256.945
L336.881,277.189
L326.238,309.945
H291.796Z
M190.983,277.189
L163.119,256.944
L173.762,224.188
H208.203
L218.847,256.944
L190.983,277.189Z
M173.762,224.188
L163.119,191.432
L190.983,171.188
L218.847,191.432
L208.203,224.188
H173.762Z
M145.897,244.433
L118.033,224.188
L128.677,191.432
H163.118
L173.761,224.188
L145.897,244.433Z
M173.762,224.188
L163.119,191.432
L190.983,171.188
L218.847,191.432
L208.203,224.188
H173.762Z
M163.118,191.432
L135.254,171.188
L145.898,138.432
H180.339
L190.982,171.188
L163.118,191.432Z
M173.762,224.188
L163.119,191.432
L190.983,171.188
L218.847,191.432
L208.203,224.188
H173.762Z
M218.847,191.432
L190.983,171.188
L201.626,138.432
H236.067
L246.711,171.188
L218.847,191.432Z
M173.762,224.188
L163.119,191.432
L190.983,171.188
L218.847,191.432
L208.203,224.188
H173.762Z
M236.068,244.433
L208.204,224.188
L218.847,191.432
H253.288
L263.932,224.188
L236.068,244.433Z
M173.762,224.188
L163.119,191.432
L190.983,171.188
L218.847,191.432
L208.203,224.188
H173.762Z
M236.068,138.431
L208.204,118.187
L218.847,85.4312
H253.288
L263.932,118.187
L236.068,138.431Z
M218.847,85.4309
L208.204,52.675
L236.068,32.4307
L263.932,52.675
L253.288,85.4309
H218.847Z
M190.982,105.675
L163.118,85.4309
L173.762,52.675
H208.203
L218.846,85.4309
L190.982,105.675Z
M218.847,85.4309
L208.204,52.675
L236.068,32.4307
L263.932,52.675
L253.288,85.4309
H218.847Z
M208.203,52.6746
L180.339,32.4302
L190.983,-0.326
H225.424
L236.067,32.4302
L208.203,52.6746Z
M218.847,85.4309
L208.204,52.675
L236.068,32.4307
L263.932,52.675
L253.288,85.4309
H218.847Z
M263.932,52.6746
L236.068,32.4302
L246.711,-0.326
H281.152
L291.796,32.4302
L263.932,52.6746Z
M218.847,85.4309
L208.204,52.675
L236.068,32.4307
L263.932,52.675
L253.288,85.4309
H218.847Z
M281.153,105.675
L253.289,85.4309
L263.932,52.675
H298.373
L309.017,85.4309
L281.153,105.675Z
M218.847,85.4309
L208.204,52.675
L236.068,32.4307
L263.932,52.675
L253.288,85.4309
H218.847Z
M381.966,138.431
L354.102,118.187
L364.745,85.4312
H399.187
L409.83,118.187
L381.966,138.431Z
M364.745,85.4309
L354.102,52.675
L381.966,32.4307
L409.83,52.675
L399.187,85.4309
H364.745Z
M336.881,105.675
L309.017,85.4309
L319.66,52.675
H354.101
L364.745,85.4309
L336.881,105.675Z
M364.745,85.4309
L354.102,52.675
L381.966,32.4307
L409.83,52.675
L399.187,85.4309
H364.745Z
M354.102,52.6746
L326.238,32.4302
L336.881,-0.326
H371.322
L381.966,32.4302
L354.102,52.6746Z
M364.745,85.4309
L354.102,52.675
L381.966,32.4307
L409.83,52.675
L399.187,85.4309
H364.745Z
M409.83,52.6746
L381.966,32.4302
L392.609,-0.326
H427.051
L437.694,32.4302
L409.83,52.6746Z
M364.745,85.4309
L354.102,52.675
L381.966,32.4307
L409.83,52.675
L399.187,85.4309
H364.745Z
M427.051,105.675
L399.187,85.4309
L409.83,52.675
H444.271
L454.915,85.4309
L427.051,105.675Z
M364.745,85.4309
L354.102,52.675
L381.966,32.4307
L409.83,52.675
L399.187,85.4309
H364.745Z
M427.051,277.189
L399.187,256.944
L409.83,224.188
H444.271
L454.915,256.944
L427.051,277.189Z
M409.83,224.188
L399.187,191.432
L427.051,171.188
L454.915,191.432
L444.271,224.188
H409.83Z
M381.966,244.433
L354.102,224.188
L364.745,191.432
H399.186
L409.83,224.188
L381.966,244.433Z
M409.83,224.188
L399.187,191.432
L427.051,171.188
L454.915,191.432
L444.271,224.188
H409.83Z
M399.187,191.432
L371.323,171.188
L381.966,138.432
H416.407
L427.051,171.188
L399.187,191.432Z
M409.83,224.188
L399.187,191.432
L427.051,171.188
L454.915,191.432
L444.271,224.188
H409.83Z
M454.915,191.432
L427.051,171.188
L437.694,138.432
H472.135
L482.779,171.188
L454.915,191.432Z
M409.83,224.188
L399.187,191.432
L427.051,171.188
L454.915,191.432
L444.271,224.188
H409.83Z
M472.136,244.433
L444.272,224.188
L454.915,191.432
H489.356
L500,224.188
L472.136,244.433Z
M409.83,224.188
L399.187,191.432
L427.051,171.188
L454.915,191.432
L444.271,224.188
H409.83Z
M263.932,224.188
L253.289,191.432
L281.153,171.188
L309.017,191.432
L298.373,224.188
H263.932Z
M309.017,191.432
L281.153,171.188
L291.796,138.432
H326.238
L336.881,171.188
L309.017,191.432Z
M246.711,171.188
L236.068,138.432
L263.932,118.187
L291.796,138.432
L281.152,171.188
H246.711Z
M309.017,191.432
L281.153,171.188
L291.796,138.432
H326.238
L336.881,171.188
L309.017,191.432Z
M291.796,138.431
L281.153,105.676
L309.017,85.4312
L336.881,105.676
L326.238,138.431
H291.796Z
M309.017,191.432
L281.153,171.188
L291.796,138.432
H326.238
L336.881,171.188
L309.017,191.432Z
M336.881,171.188
L326.238,138.432
L354.102,118.187
L381.966,138.432
L371.323,171.188
H336.881Z
M309.017,191.432
L281.153,171.188
L291.796,138.432
H326.238
L336.881,171.188
L309.017,191.432Z
M319.66,224.188
L309.017,191.432
L336.881,171.188
L364.745,191.432
L354.102,224.188
H319.66Z
M309.017,191.432
L281.153,171.188
L291.796,138.432
H326.238
L336.881,171.188
L309.017,191.432Z
M690.983,362.945
L663.119,342.701
L673.762,309.945
H708.204
L718.847,342.701
L690.983,362.945Z
M673.762,309.945
L663.119,277.189
L690.983,256.945
L718.847,277.189
L708.204,309.945
H673.762Z
M645.898,330.189
L618.034,309.945
L628.677,277.189
H663.118
L673.762,309.945
L645.898,330.189Z
M673.762,309.945
L663.119,277.189
L690.983,256.945
L718.847,277.189
L708.204,309.945
H673.762Z
M663.119,277.188
L635.255,256.944
L645.898,224.188
H680.339
L690.983,256.944
L663.119,277.188Z
M673.762,309.945
L663.119,277.189
L690.983,256.945
L718.847,277.189
L708.204,309.945
H673.762Z
M718.847,277.188
L690.983,256.944
L701.626,224.188
H736.068
L746.711,256.944
L718.847,277.188Z
M673.762,309.945
L663.119,277.189
L690.983,256.945
L718.847,277.189
L708.204,309.945
H673.762Z
M736.068,330.189
L708.204,309.945
L718.847,277.189
H753.289
L763.932,309.945
L736.068,330.189Z
M673.762,309.945
L663.119,277.189
L690.983,256.945
L718.847,277.189
L708.204,309.945
H673.762Z
M572.949,277.189
L545.085,256.944
L555.728,224.188
H590.169
L600.813,256.944
L572.949,277.189Z
M555.728,224.188
L545.085,191.432
L572.949,171.188
L600.813,191.432
L590.169,224.188
H555.728Z
M527.864,244.433
L500,224.188
L510.643,191.432
H545.084
L555.728,224.188
L527.864,244.433Z
M555.728,224.188
L545.085,191.432
L572.949,171.188
L600.813,191.432
L590.169,224.188
H555.728Z
M545.084,191.432
L517.22,171.188
L527.864,138.432
H562.305
L572.948,171.188
L545.084,191.432Z
M555.728,224.188
L545.085,191.432
L572.949,171.188
L600.813,191.432
L590.169,224.188
H555.728Z
M600.813,191.432
L572.949,171.188
L583.592,138.432
H618.033
L628.677,171.188
L600.813,191.432Z
M555.728,224.188
L545.085,191.432
L572.949,171.188
L600.813,191.432
L590.169,224.188
H555.728Z
M618.034,244.433
L590.17,224.188
L600.813,191.432
H635.254
L645.898,224.188
L618.034,244.433Z
M555.728,224.188
L545.085,191.432
L572.949,171.188
L600.813,191.432
L590.169,224.188
H555.728Z
M618.034,138.431
L590.17,118.187
L600.813,85.4312
H635.254
L645.898,118.187
L618.034,138.431Z
M600.813,85.4309
L590.17,52.675
L618.034,32.4307
L645.898,52.675
L635.254,85.4309
H600.813Z
M572.948,105.675
L545.084,85.4309
L555.728,52.675
H590.169
L600.813,85.4309
L572.948,105.675Z
M600.813,85.4309
L590.17,52.675
L618.034,32.4307
L645.898,52.675
L635.254,85.4309
H600.813Z
M590.169,52.6746
L562.305,32.4302
L572.949,-0.326
H607.39
L618.033,32.4302
L590.169,52.6746Z
M600.813,85.4309
L590.17,52.675
L618.034,32.4307
L645.898,52.675
L635.254,85.4309
H600.813Z
M645.898,52.6746
L618.034,32.4302
L628.677,-0.326
H663.118
L673.762,32.4302
L645.898,52.6746Z
M600.813,85.4309
L590.17,52.675
L618.034,32.4307
L645.898,52.675
L635.254,85.4309
H600.813Z
M663.119,105.675
L635.255,85.4309
L645.898,52.675
H680.339
L690.983,85.4309
L663.119,105.675Z
M600.813,85.4309
L590.17,52.675
L618.034,32.4307
L645.898,52.675
L635.254,85.4309
H600.813Z
M763.932,138.431
L736.068,118.187
L746.711,85.4312
H781.153
L791.796,118.187
L763.932,138.431Z
M746.711,85.4309
L736.068,52.675
L763.932,32.4307
L791.796,52.675
L781.153,85.4309
H746.711Z
M718.847,105.675
L690.983,85.4309
L701.626,52.675
H736.067
L746.711,85.4309
L718.847,105.675Z
M746.711,85.4309
L736.068,52.675
L763.932,32.4307
L791.796,52.675
L781.153,85.4309
H746.711Z
M736.068,52.6746
L708.204,32.4302
L718.847,-0.326
H753.288
L763.932,32.4302
L736.068,52.6746Z
M746.711,85.4309
L736.068,52.675
L763.932,32.4307
L791.796,52.675
L781.153,85.4309
H746.711Z
M791.796,52.6746
L763.932,32.4302
L774.575,-0.326
H809.017
L819.66,32.4302
L791.796,52.6746Z
M746.711,85.4309
L736.068,52.675
L763.932,32.4307
L791.796,52.675
L781.153,85.4309
H746.711Z
M809.017,105.675
L781.153,85.4309
L791.796,52.675
H826.238
L836.881,85.4309
L809.017,105.675Z
M746.711,85.4309
L736.068,52.675
L763.932,32.4307
L791.796,52.675
L781.153,85.4309
H746.711Z
M809.017,277.189
L781.153,256.944
L791.796,224.188
H826.238
L836.881,256.944
L809.017,277.189Z
M791.796,224.188
L781.153,191.432
L809.017,171.188
L836.881,191.432
L826.238,224.188
H791.796Z
M763.932,244.433
L736.068,224.188
L746.711,191.432
H781.152
L791.796,224.188
L763.932,244.433Z
M791.796,224.188
L781.153,191.432
L809.017,171.188
L836.881,191.432
L826.238,224.188
H791.796Z
M781.153,191.432
L753.289,171.188
L763.932,138.432
H798.373
L809.017,171.188
L781.153,191.432Z
M791.796,224.188
L781.153,191.432
L809.017,171.188
L836.881,191.432
L826.238,224.188
H791.796Z
M836.881,191.432
L809.017,171.188
L819.66,138.432
H854.102
L864.745,171.188
L836.881,191.432Z
M791.796,224.188
L781.153,191.432
L809.017,171.188
L836.881,191.432
L826.238,224.188
H791.796Z
M854.102,244.433
L826.238,224.188
L836.881,191.432
H871.323
L881.966,224.188
L854.102,244.433Z
M791.796,224.188
L781.153,191.432
L809.017,171.188
L836.881,191.432
L826.238,224.188
H791.796Z
M645.898,224.188
L635.255,191.432
L663.119,171.188
L690.983,191.432
L680.339,224.188
H645.898Z
M690.983,191.432
L663.119,171.188
L673.762,138.432
H708.204
L718.847,171.188
L690.983,191.432Z
M628.677,171.188
L618.034,138.432
L645.898,118.187
L673.762,138.432
L663.118,171.188
H628.677Z
M690.983,191.432
L663.119,171.188
L673.762,138.432
H708.204
L718.847,171.188
L690.983,191.432Z
M673.762,138.431
L663.119,105.676
L690.983,85.4312
L718.847,105.676
L708.204,138.431
H673.762Z
M690.983,191.432
L663.119,171.188
L673.762,138.432
H708.204
L718.847,171.188
L690.983,191.432Z
M718.847,171.188
L708.204,138.432
L736.068,118.187
L763.932,138.432
L753.289,171.188
H718.847Z
M690.983,191.432
L663.119,171.188
L673.762,138.432
H708.204
L718.847,171.188
L690.983,191.432Z
M701.626,224.188
L690.983,191.432
L718.847,171.188
L746.711,191.432
L736.068,224.188
H701.626Z
M690.983,191.432
L663.119,171.188
L673.762,138.432
H708.204
L718.847,171.188
L690.983,191.432Z
M809.017,726.217
L781.153,705.972
L791.796,673.216
H826.238
L836.881,705.972
L809.017,726.217Z
M791.796,673.216
L781.153,640.46
L809.017,620.216
L836.881,640.46
L826.238,673.216
H791.796Z
M763.932,693.46
L736.068,673.216
L746.711,640.46
H781.152
L791.796,673.216
L763.932,693.46Z
M791.796,673.216
L781.153,640.46
L809.017,620.216
L836.881,640.46
L826.238,673.216
H791.796Z
M781.153,640.46
L753.289,620.215
L763.932,587.459
H798.373
L809.017,620.215
L781.153,640.46Z
M791.796,673.216
L781.153,640.46
L809.017,620.216
L836.881,640.46
L826.238,673.216
H791.796Z
M836.881,640.46
L809.017,620.215
L819.66,587.459
H854.102
L864.745,620.215
L836.881,640.46Z
M791.796,673.216
L781.153,640.46
L809.017,620.216
L836.881,640.46
L826.238,673.216
H791.796Z
M854.102,693.46
L826.238,673.216
L836.881,640.46
H871.323
L881.966,673.216
L854.102,693.46Z
M791.796,673.216
L781.153,640.46
L809.017,620.216
L836.881,640.46
L826.238,673.216
H791.796Z
M690.983,640.46
L663.119,620.216
L673.762,587.46
H708.203
L718.847,620.216
L690.983,640.46Z
M673.762,587.459
L663.119,554.704
L690.983,534.459
L718.847,554.704
L708.203,587.459
H673.762Z
M645.897,607.704
L618.033,587.459
L628.677,554.704
H663.118
L673.761,587.459
L645.897,607.704Z
M673.762,587.459
L663.119,554.704
L690.983,534.459
L718.847,554.704
L708.203,587.459
H673.762Z
M663.118,554.703
L635.254,534.459
L645.898,501.703
H680.339
L690.982,534.459
L663.118,554.703Z
M673.762,587.459
L663.119,554.704
L690.983,534.459
L718.847,554.704
L708.203,587.459
H673.762Z
M718.847,554.703
L690.983,534.459
L701.626,501.703
H736.067
L746.711,534.459
L718.847,554.703Z
M673.762,587.459
L663.119,554.704
L690.983,534.459
L718.847,554.704
L708.203,587.459
H673.762Z
M736.068,607.704
L708.204,587.459
L718.847,554.704
H753.288
L763.932,587.459
L736.068,607.704Z
M673.762,587.459
L663.119,554.704
L690.983,534.459
L718.847,554.704
L708.203,587.459
H673.762Z
M736.068,501.703
L708.204,481.458
L718.847,448.702
H753.288
L763.932,481.458
L736.068,501.703Z
M718.847,448.702
L708.204,415.946
L736.068,395.702
L763.932,415.946
L753.288,448.702
H718.847Z
M690.982,468.947
L663.118,448.702
L673.762,415.946
H708.203
L718.846,448.702
L690.982,468.947Z
M718.847,448.702
L708.204,415.946
L736.068,395.702
L763.932,415.946
L753.288,448.702
H718.847Z
M708.203,415.946
L680.339,395.701
L690.983,362.946
H725.424
L736.067,395.701
L708.203,415.946Z
M718.847,448.702
L708.204,415.946
L736.068,395.702
L763.932,415.946
L753.288,448.702
H718.847Z
M763.932,415.946
L736.068,395.701
L746.711,362.946
H781.152
L791.796,395.701
L763.932,415.946Z
M718.847,448.702
L708.204,415.946
L736.068,395.702
L763.932,415.946
L753.288,448.702
H718.847Z
M781.153,468.947
L753.289,448.702
L763.932,415.946
H798.373
L809.017,448.702
L781.153,468.947Z
M718.847,448.702
L708.204,415.946
L736.068,395.702
L763.932,415.946
L753.288,448.702
H718.847Z
M881.966,501.703
L854.102,481.458
L864.745,448.702
H899.187
L909.83,481.458
L881.966,501.703Z
M864.745,448.702
L854.102,415.946
L881.966,395.702
L909.83,415.946
L899.187,448.702
H864.745Z
M836.881,468.947
L809.017,448.702
L819.66,415.946
H854.101
L864.745,448.702
L836.881,468.947Z
M864.745,448.702
L854.102,415.946
L881.966,395.702
L909.83,415.946
L899.187,448.702
H864.745Z
M854.102,415.946
L826.238,395.701
L836.881,362.946
H871.322
L881.966,395.701
L854.102,415.946Z
M864.745,448.702
L854.102,415.946
L881.966,395.702
L909.83,415.946
L899.187,448.702
H864.745Z
M909.83,415.946
L881.966,395.701
L892.609,362.946
H927.051
L937.694,395.701
L909.83,415.946Z
M864.745,448.702
L854.102,415.946
L881.966,395.702
L909.83,415.946
L899.187,448.702
H864.745Z
M927.051,468.947
L899.187,448.702
L909.83,415.946
H944.271
L954.915,448.702
L927.051,468.947Z
M864.745,448.702
L854.102,415.946
L881.966,395.702
L909.83,415.946
L899.187,448.702
H864.745Z
M927.051,640.46
L899.187,620.216
L909.83,587.46
H944.271
L954.915,620.216
L927.051,640.46Z
M909.83,587.459
L899.187,554.704
L927.051,534.459
L954.915,554.704
L944.271,587.459
H909.83Z
M881.966,607.704
L854.102,587.459
L864.745,554.704
H899.186
L909.83,587.459
L881.966,607.704Z
M909.83,587.459
L899.187,554.704
L927.051,534.459
L954.915,554.704
L944.271,587.459
H909.83Z
M899.187,554.703
L871.323,534.459
L881.966,501.703
H916.407
L927.051,534.459
L899.187,554.703Z
M909.83,587.459
L899.187,554.704
L927.051,534.459
L954.915,554.704
L944.271,587.459
H909.83Z
M954.915,554.703
L927.051,534.459
L937.694,501.703
H972.135
L982.779,534.459
L954.915,554.703Z
M909.83,587.459
L899.187,554.704
L927.051,534.459
L954.915,554.704
L944.271,587.459
H909.83Z
M972.136,607.704
L944.272,587.459
L954.915,554.704
H989.356
L1000,587.459
L972.136,607.704Z
M909.83,587.459
L899.187,554.704
L927.051,534.459
L954.915,554.704
L944.271,587.459
H909.83Z
M763.932,587.459
L753.289,554.704
L781.153,534.459
L809.017,554.704
L798.373,587.459
H763.932Z
M809.017,554.703
L781.153,534.459
L791.796,501.703
H826.238
L836.881,534.459
L809.017,554.703Z
M746.711,534.459
L736.068,501.703
L763.932,481.458
L791.796,501.703
L781.152,534.459
H746.711Z
M809.017,554.703
L781.153,534.459
L791.796,501.703
H826.238
L836.881,534.459
L809.017,554.703Z
M791.796,501.703
L781.153,468.947
L809.017,448.702
L836.881,468.947
L826.238,501.703
H791.796Z
M809.017,554.703
L781.153,534.459
L791.796,501.703
H826.238
L836.881,534.459
L809.017,554.703Z
M836.881,534.459
L826.238,501.703
L854.102,481.458
L881.966,501.703
L871.323,534.459
H836.881Z
M809.017,554.703
L781.153,534.459
L791.796,501.703
H826.238
L836.881,534.459
L809.017,554.703Z
M819.66,587.459
L809.017,554.704
L836.881,534.459
L864.745,554.704
L854.102,587.459
H819.66Z
M809.017,554.703
L781.153,534.459
L791.796,501.703
H826.238
L836.881,534.459
L809.017,554.703Z
M500,501.703
L472.136,481.458
L482.779,448.703
H517.221
L527.864,481.458
L500,501.703Z
M454.915,468.947
L427.051,448.702
L437.694,415.947
H472.135
L482.779,448.702
L454.915,468.947Z
M472.136,415.946
L444.272,395.702
L454.915,362.946
H489.356
L500,395.702
L472.136,415.946Z
M527.864,415.946
L500,395.702
L510.643,362.946
H545.085
L555.728,395.702
L527.864,415.946Z
M545.085,468.947
L517.221,448.702
L527.864,415.947
H562.306
L572.949,448.702
L545.085,468.947Z
M482.779,448.702
L472.136,415.947
L500,395.702
L527.864,415.947
L517.221,448.702
H482.779Z
M381.966,587.459
L371.323,554.704
L399.187,534.459
L427.051,554.704
L416.407,587.459
H381.966Z
M364.745,534.459
L354.102,501.703
L381.966,481.458
L409.83,501.703
L399.186,534.459
H364.745Z
M409.83,501.703
L399.187,468.947
L427.051,448.702
L454.915,468.947
L444.271,501.703
H409.83Z
M454.915,534.459
L444.272,501.703
L472.136,481.458
L500,501.703
L489.356,534.459
H454.915Z
M437.694,587.459
L427.051,554.704
L454.915,534.459
L482.779,554.704
L472.135,587.459
H437.694Z
M427.051,554.703
L399.187,534.459
L409.83,501.703
H444.271
L454.915,534.459
L427.051,554.703Z
M336.881,448.702
L326.238,415.946
L354.102,395.702
L381.966,415.946
L371.322,448.702
H336.881Z
M319.66,395.701
L309.017,362.946
L336.881,342.701
L364.745,362.946
L354.101,395.701
H319.66Z
M364.745,362.945
L354.102,330.189
L381.966,309.945
L409.83,330.189
L399.187,362.945
H364.745Z
M409.83,395.701
L399.187,362.946
L427.051,342.701
L454.915,362.946
L444.271,395.701
H409.83Z
M392.609,448.702
L381.966,415.946
L409.83,395.702
L437.694,415.946
L427.051,448.702
H392.609Z
M381.966,415.946
L354.102,395.702
L364.745,362.946
H399.187
L409.83,395.702
L381.966,415.946Z
M454.915,362.946
L444.272,330.19
L472.136,309.945
L500,330.19
L489.356,362.946
H454.915Z
M437.694,309.945
L427.051,277.189
L454.915,256.945
L482.779,277.189
L472.135,309.945
H437.694Z
M482.779,277.189
L472.136,244.433
L500,224.188
L527.864,244.433
L517.221,277.189
H482.779Z
M527.864,309.945
L517.221,277.189
L545.085,256.945
L572.949,277.189
L562.306,309.945
H527.864Z
M510.643,362.946
L500,330.19
L527.864,309.945
L555.728,330.19
L545.085,362.946
H510.643Z
M500,330.189
L472.136,309.945
L482.779,277.189
H517.221
L527.864,309.945
L500,330.189Z
M572.949,448.702
L562.306,415.946
L590.17,395.702
L618.034,415.946
L607.39,448.702
H572.949Z
M555.728,395.701
L545.085,362.946
L572.949,342.701
L600.813,362.946
L590.169,395.701
H555.728Z
M600.813,362.945
L590.17,330.189
L618.034,309.945
L645.898,330.189
L635.255,362.945
H600.813Z
M645.898,395.701
L635.255,362.946
L663.119,342.701
L690.983,362.946
L680.34,395.701
H645.898Z
M628.677,448.702
L618.034,415.946
L645.898,395.702
L673.762,415.946
L663.119,448.702
H628.677Z
M618.034,415.946
L590.17,395.702
L600.813,362.946
H635.255
L645.898,395.702
L618.034,415.946Z
M527.864,587.459
L517.221,554.704
L545.085,534.459
L572.949,554.704
L562.305,587.459
H527.864Z
M510.643,534.459
L500,501.703
L527.864,481.458
L555.728,501.703
L545.084,534.459
H510.643Z
M555.728,501.703
L545.085,468.947
L572.949,448.702
L600.813,468.947
L590.17,501.703
H555.728Z
M600.813,534.459
L590.17,501.703
L618.034,481.458
L645.898,501.703
L635.255,534.459
H600.813Z
M583.592,587.459
L572.949,554.704
L600.813,534.459
L628.677,554.704
L618.034,587.459
H583.592Z
M572.949,554.703
L545.085,534.459
L555.728,501.703
H590.17
L600.813,534.459
L572.949,554.703Z"/>
</g>
<g fill="#0044cc">
<path transform="translate(10,716) scale(0.24,-0.24)" d="M0,587.459
L190.983,726.217
L381.966,587.46
L309.017,811.973
L500,950.731
L690.983,811.973
L618.034,587.46
L809.017,726.217
L1000,587.459
L927.051,362.945
H690.983
L881.966,224.188
L809.017,-0.325
H572.949
L500,224.188
L427.051,-0.325
H190.983
L118.034,224.188
L309.017,362.945
H72.9492
L0,587.459Z
M309.017,362.945
L500,224.188
L690.983,362.945
L618.034,587.46
H381.966
L309.017,362.945Z"/>
<path transform="translate(262,716) scale(0.24,-0.24)" d="M0,587.459
L72.9492,640.46
L145.898,587.46
L118.034,673.216
L190.983,726.217
L263.932,673.216
L236.068,587.46
L309.017,640.46
L381.966,587.46
L354.102,673.216
L427.051,726.217
H336.881
L309.017,811.974
L381.966,864.974
L454.915,811.974
L427.051,897.73
L500,950.731
L572.949,897.73
L545.085,811.974
L618.034,864.974
L690.983,811.974
L663.119,726.217
H572.949
L645.898,673.216
L618.034,587.46
L690.983,640.46
L763.932,587.46
L736.068,673.216
L809.017,726.217
L881.966,673.216
L854.102,587.46
L927.051,640.46
L1000,587.459
L972.136,501.703
H881.966
L954.915,448.702
L927.051,362.946
H836.881
L809.017,448.702
L781.153,362.946
H690.983
L763.932,309.945
L736.068,224.189
L809.017,277.189
L881.966,224.189
L854.102,138.432
H763.932
L836.881,85.4307
L809.017,-0.325
H718.847
L690.983,85.4307
L663.119,-0.325
H572.948
L545.085,85.4307
L618.034,138.432
H527.864
L500,224.189
L472.136,138.432
H381.966
L454.915,85.4307
L427.052,-0.325
H336.881
L309.017,85.4307
L281.153,-0.325
H190.983
L163.119,85.4307
L236.068,138.432
H145.898
L118.034,224.189
L190.983,277.189
L263.932,224.189
L236.068,309.945
L309.017,362.946
H218.847
L190.983,448.702
L163.119,362.946
H72.9492
L45.085,448.702
L118.034,501.703
H27.8643
L0,587.459Z
M427.051,726.217
L500,673.216
L572.949,726.217
L545.085,811.974
H454.915
L427.051,726.217Z
M118.034,501.703
L190.983,448.702
L263.932,501.703
L236.068,587.46
H145.898
L118.034,501.703Z
M236.068,138.432
L309.017,85.4307
L381.966,138.432
L354.102,224.189
H263.932
L236.068,138.432Z
M618.034,138.432
L690.983,85.4307
L763.932,138.432
L736.068,224.189
H645.898
L618.034,138.432Z
M736.068,501.703
L809.017,448.702
L881.966,501.703
L854.102,587.46
H763.932
L736.068,501.703Z
M427.051,448.702
L500,501.703
L572.949,448.702
L545.085,362.946
H454.915
L427.051,448.702Z
M336.881,448.702
L354.102,501.703
L427.051,448.702
H336.881Z
M381.966,309.945
L454.915,362.946
L427.051,277.189
L381.966,309.945Z
M545.085,362.946
L618.034,309.945
L572.949,277.189
L545.085,362.946Z
M572.949,448.702
L645.898,501.703
L663.119,448.702
H572.949Z
M472.136,587.459
H527.864
L500,501.703
L472.136,587.459Z
M263.932,501.703
L336.881,448.702
L309.017,362.946
L381.966,309.945
L354.102,224.189
L427.052,277.189
L500,224.189
L572.948,277.189
L645.898,224.189
L618.034,309.945
L690.983,362.946
L663.119,448.702
L736.068,501.703
H645.898
L618.034,587.46
H527.864
L500,673.216
L472.136,587.46
H381.966
L354.102,501.703
H263.932Z"/>
<g transform="translate(514,716) scale(0.24,-0.24)">
<path d="M500,950.731
L472.136,930.486
L482.779,897.73
H517.221
L527.864,930.486
L500,950.731Z
M454.915,917.975
L427.051,897.73
L437.694,864.974
H472.135
L482.779,897.73
L454.915,917.975Z
M472.136,864.974
L444.272,844.729
L454.915,811.974
H489.356
L500,844.729
L472.136,864.974Z
M527.864,864.974
L500,844.729
L510.643,811.974
H545.085
L555.728,844.729
L527.864,864.974Z
M545.085,917.975
L517.221,897.73
L527.864,864.974
H562.306
L572.949,897.73
L545.085,917.975Z
M381.966,864.974
L354.102,844.73
L364.745,811.974
H399.187
L409.83,844.73
L381.966,864.974Z
M336.881,832.218
L309.017,811.974
L319.66,779.218
H354.101
L364.745,811.974
L336.881,832.218Z
M354.102,779.217
L326.238,758.973
L336.881,726.217
H371.322
L381.966,758.973
L354.102,779.217Z
M409.83,779.217
L381.966,758.973
L392.609,726.217
H427.051
L437.694,758.973
L409.83,779.217Z
M427.051,832.218
L399.187,811.974
L409.83,779.218
H444.271
L454.915,811.974
L427.051,832.218Z
M427.051,726.217
L399.187,705.972
L409.83,673.217
H444.271
L454.915,705.972
L427.051,726.217Z
M381.966,693.461
L354.102,673.216
L364.745,640.46
H399.186
L409.83,673.216
L381.966,693.461Z
M399.187,640.46
L371.323,620.216
L381.966,587.46
H416.407
L427.051,620.216
L399.187,640.46Z
M454.915,640.46
L427.051,620.216
L437.694,587.46
H472.135
L482.779,620.216
L454.915,640.46Z
M472.136,693.461
L444.272,673.216
L454.915,640.46
H489.356
L500,673.216
L472.136,693.461Z
M572.949,726.217
L545.085,705.972
L555.728,673.217
H590.17
L600.813,705.972
L572.949,726.217Z
M527.864,693.461
L500,673.216
L510.643,640.46
H545.084
L555.728,673.216
L527.864,693.461Z
M545.085,640.46
L517.221,620.216
L527.864,587.46
H562.305
L572.949,620.216
L545.085,640.46Z
M600.813,640.46
L572.949,620.216
L583.592,587.46
H618.034
L628.677,620.216
L600.813,640.46Z
M618.034,693.461
L590.17,673.216
L600.813,640.46
H635.255
L645.898,673.216
L618.034,693.461Z
M618.034,864.974
L590.17,844.73
L600.813,811.974
H635.255
L645.898,844.73
L618.034,864.974Z
M572.949,832.218
L545.085,811.974
L555.728,779.218
H590.169
L600.813,811.974
L572.949,832.218Z
M590.17,779.217
L562.306,758.973
L572.949,726.217
H607.39
L618.034,758.973
L590.17,779.217Z
M645.898,779.217
L618.034,758.973
L628.677,726.217
H663.119
L673.762,758.973
L645.898,779.217Z
M663.119,832.218
L635.255,811.974
L645.898,779.218
H680.34
L690.983,811.974
L663.119,832.218Z
M454.915,811.974
L427.051,726.217
L500,673.217
L572.949,726.217
L545.085,811.974
H454.915Z"/>
<path fill="#ffffff" d="M454.915,811.974
L444.272,779.218
L472.136,758.973
L500,779.218
L489.356,811.974
H454.915Z
M437.694,758.973
L427.051,726.217
L454.915,705.973
L482.779,726.217
L472.135,758.973
H437.694Z
M482.779,726.217
L472.136,693.461
L500,673.217
L527.864,693.461
L517.221,726.217
H482.779Z
M527.864,758.973
L517.221,726.217
L545.085,705.973
L572.949,726.217
L562.306,758.973
H527.864Z
M510.643,811.974
L500,779.218
L527.864,758.973
L555.728,779.218
L545.085,811.974
H510.643Z"/>
<path d="M190.983,726.217
L163.119,705.972
L173.762,673.216
H208.204
L218.847,705.972
L190.983,726.217Z
M145.898,693.46
L118.034,673.216
L128.677,640.46
H163.118
L173.762,673.216
L145.898,693.46Z
M163.119,640.46
L135.255,620.215
L145.898,587.459
H180.339
L190.983,620.215
L163.119,640.46Z
M218.847,640.46
L190.983,620.215
L201.626,587.459
H236.068
L246.711,620.215
L218.847,640.46Z
M236.068,693.46
L208.204,673.216
L218.847,640.46
H253.289
L263.932,673.216
L236.068,693.46Z
M72.9487,640.46
L45.0847,620.216
L55.728,587.46
H90.1694
L100.813,620.216
L72.9487,640.46Z
M27.8635,607.704
L0,587.459
L10.6428,554.704
H45.0842
L55.7275,587.459
L27.8635,607.704Z
M45.0845,554.703
L17.2205,534.459
L27.8638,501.703
H62.3052
L72.9485,534.459
L45.0845,554.703Z
M100.813,554.703
L72.9487,534.459
L83.592,501.703
H118.033
L128.677,534.459
L100.813,554.703Z
M118.034,607.704
L90.1697,587.459
L100.813,554.704
H135.254
L145.898,587.459
L118.034,607.704Z
M118.034,501.703
L90.1697,481.458
L100.813,448.702
H135.254
L145.898,481.458
L118.034,501.703Z
M72.9485,468.947
L45.0845,448.702
L55.7278,415.946
H90.1692
L100.813,448.702
L72.9485,468.947Z
M90.1694,415.946
L62.3054,395.701
L72.9487,362.946
H107.39
L118.033,395.701
L90.1694,415.946Z
M145.898,415.946
L118.034,395.701
L128.677,362.946
H163.118
L173.762,395.701
L145.898,415.946Z
M163.119,468.947
L135.255,448.702
L145.898,415.946
H180.339
L190.983,448.702
L163.119,468.947Z
M263.932,501.703
L236.068,481.458
L246.711,448.702
H281.153
L291.796,481.458
L263.932,501.703Z
M218.847,468.947
L190.983,448.702
L201.626,415.946
H236.067
L246.711,448.702
L218.847,468.947Z
M236.068,415.946
L208.204,395.701
L218.847,362.946
H253.288
L263.932,395.701
L236.068,415.946Z
M291.796,415.946
L263.932,395.701
L274.575,362.946
H309.017
L319.66,395.701
L291.796,415.946Z
M309.017,468.947
L281.153,448.702
L291.796,415.946
H326.238
L336.881,448.702
L309.017,468.947Z
M309.017,640.46
L281.153,620.216
L291.796,587.46
H326.238
L336.881,620.216
L309.017,640.46Z
M263.932,607.704
L236.068,587.459
L246.711,554.704
H281.152
L291.796,587.459
L263.932,607.704Z
M281.153,554.703
L253.289,534.459
L263.932,501.703
H298.373
L309.017,534.459
L281.153,554.703Z
M336.881,554.703
L309.017,534.459
L319.66,501.703
H354.102
L364.745,534.459
L336.881,554.703Z
M354.102,607.704
L326.238,587.459
L336.881,554.704
H371.323
L381.966,587.459
L354.102,607.704Z
M145.898,587.459
L118.034,501.703
L190.983,448.702
L263.932,501.703
L236.068,587.459
H145.898Z"/>
<path fill="#ffffff" d="M145.898,587.459
L135.255,554.704
L163.119,534.459
L190.983,554.704
L180.339,587.459
H145.898Z
M128.677,534.459
L118.034,501.703
L145.898,481.458
L173.762,501.703
L163.118,534.459
H128.677Z
M173.762,501.703
L163.119,468.947
L190.983,448.702
L218.847,468.947
L208.204,501.703
H173.762Z
M218.847,534.459
L208.204,501.703
L236.068,481.458
L263.932,501.703
L253.289,534.459
H218.847Z
M201.626,587.459
L190.983,554.704
L218.847,534.459
L246.711,554.704
L236.068,587.459
H201.626Z"/>
<path d="M309.017,362.945
L281.153,342.701
L291.796,309.945
H326.238
L336.881,342.701
L309.017,362.945Z
M263.932,330.189
L236.068,309.945
L246.711,277.189
H281.152
L291.796,309.945
L263.932,330.189Z
M281.153,277.188
L253.289,256.944
L263.932,224.188
H298.373
L309.017,256.944
L281.153,277.188Z
M336.881,277.188
L309.017,256.944
L319.66,224.188
H354.102
L364.745,256.944
L336.881,277.188Z
M354.102,330.189
L326.238,309.945
L336.881,277.189
H371.323
L381.966,309.945
L354.102,330.189Z
M190.983,277.189
L163.119,256.944
L173.762,224.188
H208.203
L218.847,256.944
L190.983,277.189Z
M145.897,244.433
L118.033,224.188
L128.677,191.432
H163.118
L173.761,224.188
L145.897,244.433Z
M163.118,191.432
L135.254,171.188
L145.898,138.432
H180.339
L190.982,171.188
L163.118,191.432Z
M218.847,191.432
L190.983,171.188
L201.626,138.432
H236.067
L246.711,171.188
L218.847,191.432Z
M236.068,244.433
L208.204,224.188
L218.847,191.432
H253.288
L263.932,224.188
L236.068,244.433Z
M236.068,138.431
L208.204,118.187
L218.847,85.4312
H253.288
L263.932,118.187
L236.068,138.431Z
M190.982,105.675
L163.118,85.4309
L173.762,52.675
H208.203
L218.846,85.4309
L190.982,105.675Z
M208.203,52.6746
L180.339,32.4302
L190.983,-0.326
H225.424
L236.067,32.4302
L208.203,52.6746Z
M263.932,52.6746
L236.068,32.4302
L246.711,-0.326
H281.152
L291.796,32.4302
L263.932,52.6746Z
M281.153,105.675
L253.289,85.4309
L263.932,52.675
H298.373
L309.017,85.4309
L281.153,105.675Z
M381.966,138.431
L354.102,118.187
L364.745,85.4312
H399.187
L409.83,118.187
L381.966,138.431Z
M336.881,105.675
L309.017,85.4309
L319.66,52.675
H354.101
L364.745,85.4309
L336.881,105.675Z
M354.102,52.6746
L326.238,32.4302
L336.881,-0.326
H371.322
L381.966,32.4302
L354.102,52.6746Z
M409.83,52.6746
L381.966,32.4302
L392.609,-0.326
H427.051
L437.694,32.4302
L409.83,52.6746Z
M427.051,105.675
L399.187,85.4309
L409.83,52.675
H444.271
L454.915,85.4309
L427.051,105.675Z
M427.051,277.189
L399.187,256.944
L409.83,224.188
H444.271
L454.915,256.944
L427.051,277.189Z
M381.966,244.433
L354.102,224.188
L364.745,191.432
H399.186
L409.83,224.188
L381.966,244.433Z
M399.187,191.432
L371.323,171.188
L381.966,138.432
H416.407
L427.051,171.188
L399.187,191.432Z
M454.915,191.432
L427.051,171.188
L437.694,138.432
H472.135
L482.779,171.188
L454.915,191.432Z
M472.136,244.433
L444.272,224.188
L454.915,191.432
H489.356
L500,224.188
L472.136,244.433Z
M263.932,224.188
L236.068,138.432
L309.017,85.4312
L381.966,138.432
L354.102,224.188
H263.932Z"/>
<path fill="#ffffff" d="M263.932,224.188
L253.289,191.432
L281.153,171.188
L309.017,191.432
L298.373,224.188
H263.932Z
M246.711,171.188
L236.068,138.432
L263.932,118.187
L291.796,138.432
L281.152,171.188
H246.711Z
M291.796,138.431
L281.153,105.676
L309.017,85.4312
L336.881,105.676
L326.238,138.431
H291.796Z
M336.881,171.188
L326.238,138.432
L354.102,118.187
L381.966,138.432
L371.323,171.188
H336.881Z
M319.66,224.188
L309.017,191.432
L336.881,171.188
L364.745,191.432
L354.102,224.188
H319.66Z"/>
<path d="M690.983,362.945
L663.119,342.701
L673.762,309.945
H708.204
L718.847,342.701
L690.983,362.945Z
M645.898,330.189
L618.034,309.945
L628.677,277.189
H663.118
L673.762,309.945
L645.898,330.189Z
M663.119,277.188
L635.255,256.944
L645.898,224.188
H680.339
L690.983,256.944
L663.119,277.188Z
M718.847,277.188
L690.983,256.944
L701.626,224.188
H736.068
L746.711,256.944
L718.847,277.188Z
M736.068,330.189
L708.204,309.945
L718.847,277.189
H753.289
L763.932,309.945
L736.068,330.189Z
M572.949,277.189
L545.085,256.944
L555.728,224.188
H590.169
L600.813,256.944
L572.949,277.189Z
M527.864,244.433
L500,224.188
L510.643,191.432
H545.084
L555.728,224.188
L527.864,244.433Z
M545.084,191.432
L517.22,171.188
L527.864,138.432
H562.305
L572.948,171.188
L545.084,191.432Z
M600.813,191.432
L572.949,171.188
L583.592,138.432
H618.033
L628.677,171.188
L600.813,191.432Z
M618.034,244.433
L590.17,224.188
L600.813,191.432
H635.254
L645.898,224.188
L618.034,244.433Z
M618.034,138.431
L590.17,118.187
L600.813,85.4312
H635.254
L645.898,118.187
L618.034,138.431Z
M572.948,105.675
L545.084,85.4309
L555.728,52.675
H590.169
L600.813,85.4309
L572.948,105.675Z
M590.169,52.6746
L562.305,32.4302
L572.949,-0.326
H607.39
L618.033,32.4302
L590.169,52.6746Z
M645.898,52.6746
L618.034,32.4302
L628.677,-0.326
H663.118
L673.762,32.4302
L645.898,52.6746Z
M663.119,105.675
L635.255,85.4309
L645.898,52.675
H680.339
L690.983,85.4309
L663.119,105.675Z
M763.932,138.431
L736.068,118.187
L746.711,85.4312
H781.153
L791.796,118.187
L763.932,138.431Z
M718.847,105.675
L690.983,85.4309
L701.626,52.675
H736.067
L746.711,85.4309
L718.847,105.675Z
M736.068,52.6746
L708.204,32.4302
L718.847,-0.326
H753.288
L763.932,32.4302
L736.068,52.6746Z
M791.796,52.6746
L763.932,32.4302
L774.575,-0.326
H809.017
L819.66,32.4302
L791.796,52.6746Z
M809.017,105.675
L781.153,85.4309
L791.796,52.675
H826.238
L836.881,85.4309
L809.017,105.675Z
M809.017,277.189
L781.153,256.944
L791.796,224.188
H826.238
L836.881,256.944
L809.017,277.189Z
M763.932,244.433
L736.068,224.188
L746.711,191.432
H781.152
L791.796,224.188
L763.932,244.433Z
M781.153,191.432
L753.289,171.188
L763.932,138.432
H798.373
L809.017,171.188
L781.153,191.432Z
M836.881,191.432
L809.017,171.188
L819.66,138.432
H854.102
L864.745,171.188
L836.881,191.432Z
M854.102,244.433
L826.238,224.188
L836.881,191.432
H871.323
L881.966,224.188
L854.102,244.433Z
M645.898,224.188
L618.034,138.432
L690.983,85.4312
L763.932,138.432
L736.068,224.188
H645.898Z"/>
<path fill="#ffffff" d="M645.898,224.188
L635.255,191.432
L663.119,171.188
L690.983,191.432
L680.339,224.188
H645.898Z
M628.677,171.188
L618.034,138.432
L645.898,118.187
L673.762,138.432
L663.118,171.188
H628.677Z
M673.762,138.431
L663.119,105.676
L690.983,85.4312
L718.847,105.676
L708.204,138.431
H673.762Z
M718.847,171.188
L708.204,138.432
L736.068,118.187
L763.932,138.432
L753.289,171.188
H718.847Z
M701.626,224.188
L690.983,191.432
L718.847,171.188
L746.711,191.432
L736.068,224.188
H701.626Z"/>
<path d="M809.017,726.217
L781.153,705.972
L791.796,673.216
H826.238
L836.881,705.972
L809.017,726.217Z
M763.932,693.46
L736.068,673.216
L746.711,640.46
H781.152
L791.796,673.216
L763.932,693.46Z
M781.153,640.46
L753.289,620.215
L763.932,587.459
H798.373
L809.017,620.215
L781.153,640.46Z
M836.881,640.46
L809.017,620.215
L819.66,587.459
H854.102
L864.745,620.215
L836.881,640.46Z
M854.102,693.46
L826.238,673.216
L836.881,640.46
H871.323
L881.966,673.216
L854.102,693.46Z
M690.983,640.46
L663.119,620.216
L673.762,587.46
H708.203
L718.847,620.216
L690.983,640.46Z
M645.897,607.704
L618.033,587.459
L628.677,554.704
H663.118
L673.761,587.459
L645.897,607.704Z
M663.118,554.703
L635.254,534.459
L645.898,501.703
H680.339
L690.982,534.459
L663.118,554.703Z
M718.847,554.703
L690.983,534.459
L701.626,501.703
H736.067
L746.711,534.459
L718.847,554.703Z
M736.068,607.704
L708.204,587.459
L718.847,554.704
H753.288
L763.932,587.459
L736.068,607.704Z
M736.068,501.703
L708.204,481.458
L718.847,448.702
H753.288
L763.932,481.458
L736.068,501.703Z
M690.982,468.947
L663.118,448.702
L673.762,415.946
H708.203
L718.846,448.702
L690.982,468.947Z
M708.203,415.946
L680.339,395.701
L690.983,362.946
H725.424
L736.067,395.701
L708.203,415.946Z
M763.932,415.946
L736.068,395.701
L746.711,362.946
H781.152
L791.796,395.701
L763.932,415.946Z
M781.153,468.947
L753.289,448.702
L763.932,415.946
H798.373
L809.017,448.702
L781.153,468.947Z
M881.966,501.703
L854.102,481.458
L864.745,448.702
H899.187
L909.83,481.458
L881.966,501.703Z
M836.881,468.947
L809.017,448.702
L819.66,415.946
H854.101
L864.745,448.702
L836.881,468.947Z
M854.102,415.946
L826.238,395.701
L836.881,362.946
H871.322
L881.966,395.701
L854.102,415.946Z
M909.83,415.946
L881.966,395.701
L892.609,362.946
H927.051
L937.694,395.701
L909.83,415.946Z
M927.051,468.947
L899.187,448.702
L909.83,415.946
H944.271
L954.915,448.702
L927.051,468.947Z
M927.051,640.46
L899.187,620.216
L909.83,587.46
H944.271
L954.915,620.216
L927.051,640.46Z
M881.966,607.704
L854.102,587.459
L864.745,554.704
H899.186
L909.83,587.459
L881.966,607.704Z
M899.187,554.703
L871.323,534.459
L881.966,501.703
H916.407
L927.051,534.459
L899.187,554.703Z
M954.915,554.703
L927.051,534.459
L937.694,501.703
H972.135
L982.779,534.459
L954.915,554.703Z
M972.136,607.704
L944.272,587.459
L954.915,554.704
H989.356
L1000,587.459
L972.136,607.704Z
M763.932,587.459
L736.068,501.703
L809.017,448.702
L881.966,501.703
L854.102,587.459
H763.932Z"/>
<path fill="#ffffff" d="M763.932,587.459
L753.289,554.704
L781.153,534.459
L809.017,554.704
L798.373,587.459
H763.932Z
M746.711,534.459
L736.068,501.703
L763.932,481.458
L791.796,501.703
L781.152,534.459
H746.711Z
M791.796,501.703
L781.153,468.947
L809.017,448.702
L836.881,468.947
L826.238,501.703
H791.796Z
M836.881,534.459
L826.238,501.703
L854.102,481.458
L881.966,501.703
L871.323,534.459
H836.881Z
M819.66,587.459
L809.017,554.704
L836.881,534.459
L864.745,554.704
L854.102,587.459
H819.66Z"/>
<path d="M381.966,587.46
L309.017,362.946
L500,224.189
L690.983,362.946
L618.034,587.46
H381.966Z"/>
<path fill="#ffffff" d="M381.966,587.459
L371.323,554.704
L399.187,534.459
L427.051,554.704
L416.407,587.459
H381.966Z
M364.745,534.459
L354.102,501.703
L381.966,481.458
L409.83,501.703
L399.186,534.459
H364.745Z
M409.83,501.703
L399.187,468.947
L427.051,448.702
L454.915,468.947
L444.271,501.703
H409.83Z
M454.915,534.459
L444.272,501.703
L472.136,481.458
L500,501.703
L489.356,534.459
H454.915Z
M437.694,587.459
L427.051,554.704
L454.915,534.459
L482.779,554.704
L472.135,587.459
H437.694Z
M336.881,448.702
L326.238,415.946
L354.102,395.702
L381.966,415.946
L371.322,448.702
H336.881Z
M319.66,395.701
L309.017,362.946
L336.881,342.701
L364.745,362.946
L354.101,395.701
H319.66Z
M364.745,362.945
L354.102,330.189
L381.966,309.945
L409.83,330.189
L399.187,362.945
H364.745Z
M409.83,395.701
L399.187,362.946
L427.051,342.701
L454.915,362.946
L444.271,395.701
H409.83Z
M392.609,448.702
L381.966,415.946
L409.83,395.702
L437.694,415.946
L427.051,448.702
H392.609Z
M454.915,362.946
L444.272,330.19
L472.136,309.945
L500,330.19
L489.356,362.946
H454.915Z
M437.694,309.945
L427.051,277.189
L454.915,256.945
L482.779,277.189
L472.135,309.945
H437.694Z
M482.779,277.189
L472.136,244.433
L500,224.188
L527.864,244.433
L517.221,277.189
H482.779Z
M527.864,309.945
L517.221,277.189
L545.085,256.945
L572.949,277.189
L562.306,309.945
H527.864Z
M510.643,362.946
L500,330.19
L527.864,309.945
L555.728,330.19
L545.085,362.946
H510.643Z
M572.949,448.702
L562.306,415.946
L590.17,395.702
L618.034,415.946
L607.39,448.702
H572.949Z
M555.728,395.701
L545.085,362.946
L572.949,342.701
L600.813,362.946
L590.169,395.701
H555.728Z
M600.813,362.945
L590.17,330.189
L618.034,309.945
L645.898,330.189
L635.255,362.945
H600.813Z
M645.898,395.701
L635.255,362.946
L663.119,342.701
L690.983,362.946
L680.34,395.701
H645.898Z
M628.677,448.702
L618.034,415.946
L645.898,395.702
L673.762,415.946
L663.119,448.702
H628.677Z
M527.864,587.459
L517.221,554.704
L545.085,534.459
L572.949,554.704
L562.305,587.459
H527.864Z
M510.643,534.459
L500,501.703
L527.864,481.458
L555.728,501.703
L545.084,534.459
H510.643Z
M555.728,501.703
L545.085,468.947
L572.949,448.702
L600.813,468.947
L590.17,501.703
H555.728Z
M600.813,534.459
L590.17,501.703
L618.034,481.458
L645.898,501.703
L635.255,534.459
H600.813Z
M583.592,587.459
L572.949,554.704
L600.813,534.459
L628.677,554.704
L618.034,587.459
H583.592Z
M500,501.703
L427.051,448.702
L454.915,362.946
H545.085
L572.949,448.702
L500,501.703Z"/>
<path d="M500,501.703
L472.136,481.458
L482.779,448.703
H517.221
L527.864,481.458
L500,501.703Z
M454.915,468.947
L427.051,448.702
L437.694,415.947
H472.135
L482.779,448.702
L454.915,468.947Z
M472.136,415.946
L444.272,395.702
L454.915,362.946
H489.356
L500,395.702
L472.136,415.946Z
M527.864,415.946
L500,395.702
L510.643,362.946
H545.085
L555.728,395.702
L527.864,415.946Z
M545.085,468.947
L517.221,448.702
L527.864,415.947
H562.306
L572.949,448.702
L545.085,468.947Z"/>
</g>
</g>
<g fill="#f00000">
<path transform="translate(10,234) scale(0.24,-0.24)" d="M0,587.46
L176.5,715.695
L232.648,542.886
H414.351
L470.499,715.695
L323.5,822.497
L500,950.731
L676.5,822.497
L529.501,715.695
L585.649,542.886
H767.352
L823.5,715.695
L1000,587.46
L932.584,379.972
L785.584,486.772
L638.584,379.972
L694.733,207.163
H876.435
L809.017,-0.326
H590.851
L647,172.483
L500,279.284
L353,172.483
L409.149,-0.326
H190.983
L123.565,207.163
H305.267
L361.416,379.972
L214.416,486.772
L67.416,379.972
L0,587.46Z"/>
<path transform="translate(262,234) scale(0.24,-0.24)" d="M0,587.46
L176.5,715.695
L196.32,654.693
L239.538,686.093
L282.756,654.693
L266.248,603.887
H212.828
L232.648,542.886
H296.789
L280.281,593.692
L323.5,625.091
L366.718,593.692
L350.21,542.886
H414.351
L434.172,603.887
H380.751
L364.243,654.693
L407.461,686.093
L450.68,654.693
L470.499,715.695
L418.608,753.396
L402.102,702.591
H348.681
L332.173,753.396
L375.391,784.796
L323.5,822.497
L500,950.731
L676.5,822.497
L624.609,784.796
L667.827,753.396
L651.319,702.591
H597.898
L581.392,753.396
L529.501,715.695
L549.32,654.693
L592.539,686.093
L635.757,654.693
L619.249,603.887
H565.829
L585.649,542.886
H649.79
L633.282,593.692
L676.5,625.091
L719.719,593.692
L703.211,542.886
H767.352
L787.172,603.887
H733.752
L717.244,654.693
L760.462,686.093
L803.68,654.693
L823.5,715.695
L1000,587.46
L932.584,379.972
L880.693,417.673
L864.185,366.867
H810.765
L794.257,417.673
L837.475,449.072
L785.584,486.772
L733.692,449.072
L776.91,417.673
L760.403,366.867
H706.982
L690.475,417.673
L638.584,379.972
L658.404,318.97
L701.622,350.369
L744.84,318.97
L728.332,268.164
H674.912
L694.733,207.162
H758.874
L742.366,257.968
L785.584,289.368
L828.802,257.968
L812.294,207.162
H876.435
L809.017,-0.326
H590.851
L610.672,60.6748
H557.252
L540.744,111.481
L583.962,142.881
L627.179,111.481
L647,172.483
L595.109,210.184
L578.602,159.378
H525.181
L508.673,210.184
L551.891,241.583
L500,279.284
L448.109,241.583
L491.327,210.184
L474.819,159.378
H421.398
L404.891,210.184
L353,172.483
L372.82,111.481
L416.038,142.881
L459.256,111.481
L442.748,60.6748
H389.329
L409.149,-0.326
H190.983
L123.565,207.162
H187.706
L171.198,257.968
L214.416,289.368
L257.635,257.968
L241.127,207.162
H305.267
L325.088,268.164
H271.668
L255.16,318.97
L298.378,350.369
L341.596,318.97
L361.416,379.972
L309.525,417.673
L293.018,366.867
H239.597
L223.09,417.673
L266.307,449.072
L214.416,486.772
L162.525,449.072
L205.743,417.673
L189.235,366.867
H135.815
L119.307,417.673
L67.416,379.972
L0,587.46Z
M87.2373,318.97
L130.455,350.369
L173.673,318.97
L157.165,268.164
H103.744
L87.2373,318.97Z
M228.391,753.396
L271.608,784.796
L314.826,753.396
L298.319,702.591
H244.898
L228.391,753.396Z
M685.174,753.396
L728.392,784.796
L771.609,753.396
L755.102,702.591
H701.681
L685.174,753.396Z
M826.327,318.97
L869.545,350.369
L912.763,318.97
L896.256,268.164
H842.835
L826.327,318.97Z
M456.782,50.4785
L500,81.8789
L543.218,50.4785
L526.71,-0.326
H473.29
L456.782,50.4785Z"/>
<path transform="translate(514,234) scale(0.24,-0.24)" d="M595.94,93.5469
L600.794,78.6104
H616.499
L621.352,93.5469
L608.646,102.778
L595.94,93.5469Z
M0,587.46
L176.5,715.695
L196.32,654.693
L211.576,665.778
L216.429,650.841
H232.135
L236.988,665.778
L224.282,675.009
L239.538,686.093
L254.776,675.009
L242.088,665.778
L246.941,650.841
H262.647
L267.5,665.778
L282.756,654.693
L276.928,636.759
L264.205,645.99
L251.517,636.759
L256.353,621.822
H272.075
L266.248,603.887
H247.391
L252.244,618.824
L239.538,628.056
L226.832,618.824
L231.685,603.887
H212.828
L232.648,542.886
H296.789
L290.975,560.82
H306.667
L311.521,575.757
L298.815,584.988
L286.109,575.757
L280.281,593.692
L295.538,604.776
L300.391,589.839
H316.096
L320.949,604.776
L308.244,614.007
L323.5,625.091
L338.756,614.007
L326.05,604.776
L330.903,589.839
H346.608
L351.462,604.776
L366.718,593.692
L360.89,575.757
L348.184,584.988
L335.478,575.757
L340.332,560.82
H356.037
L350.21,542.886
H414.351
L434.172,603.887
H415.314
L420.147,618.824
L407.461,628.056
L394.755,618.824
L399.608,603.887
H380.751
L374.924,621.822
H390.629
L395.483,636.759
L382.777,645.99
L370.071,636.759
L364.243,654.693
L379.499,665.778
L384.353,650.841
H400.058
L404.891,665.778
L392.205,675.009
L407.461,686.093
L422.714,675.006
L410.012,665.778
L414.864,650.841
H430.57
L435.403,665.778
L450.659,654.693
L470.499,715.695
L418.589,753.396
L412.771,735.47
L412.781,735.462
L412.771,735.47
L400.058,744.693
L387.37,735.462
L392.205,720.525
H407.929
L402.102,702.591
H383.244
L388.076,717.527
L375.391,726.759
L362.685,717.527
L367.538,702.591
H348.681
L342.854,720.525
H358.559
L363.412,735.462
L350.706,744.693
L338,735.462
L332.173,753.396
L347.429,764.48
L352.282,749.544
H367.988
L372.82,764.48
L360.135,773.712
L375.391,784.796
L323.5,822.497
L500,950.731
L676.5,822.497
L624.609,784.796
L639.865,773.712
L627.159,764.48
L632.012,749.544
H647.718
L652.571,764.48
L667.827,753.396
L662,735.462
L649.294,744.693
L636.588,735.462
L641.441,720.525
H657.146
L651.319,702.591
H632.462
L637.315,717.527
L624.609,726.759
L611.903,717.527
L616.756,702.591
H597.898
L592.072,720.525
H607.777
L612.63,735.462
L599.924,744.693
L587.219,735.462
L581.392,753.396
L529.501,715.695
L549.32,654.693
L564.576,665.778
L569.43,650.841
H585.136
L589.988,665.778
L577.282,675.009
L592.538,686.093
L607.777,675.009
L595.089,665.778
L599.924,650.841
H615.647
L620.5,665.778
L635.757,654.693
L629.929,636.759
L617.206,645.99
L604.517,636.759
L609.353,621.822
H625.076
L619.249,603.887
H600.391
L605.244,618.824
L592.538,628.056
L579.832,618.824
L584.686,603.887
H565.829
L585.649,542.886
H649.79
L643.963,560.82
H659.668
L664.522,575.757
L651.816,584.988
L639.11,575.757
L633.282,593.692
L648.538,604.776
L653.392,589.839
H669.084
L673.95,604.776
L661.244,614.007
L676.5,625.091
L691.756,614.007
L679.051,604.776
L683.904,589.839
H699.609
L704.462,604.776
L719.719,593.692
L713.891,575.757
L701.155,584.988
L688.479,575.757
L693.333,560.82
H709.025
L703.211,542.886
H767.352
L787.172,603.887
H768.315
L773.168,618.824
L760.462,628.056
L747.756,618.824
L752.609,603.887
H733.752
L727.925,621.822
H743.63
L748.483,636.759
L735.777,645.99
L723.072,636.759
L717.244,654.693
L732.5,665.778
L737.353,650.841
H753.059
L757.912,665.778
L745.206,675.009
L760.462,686.093
L775.718,675.009
L763.012,665.778
L767.865,650.841
H783.571
L788.424,665.778
L803.68,654.693
L823.5,715.695
L1000,587.46
L932.584,379.972
L880.693,417.673
L874.865,399.738
L862.142,408.97
L849.453,399.738
L854.289,384.802
H870.012
L864.185,366.867
H845.328
L850.181,381.804
L837.475,391.035
L824.769,381.804
L829.622,366.867
H810.765
L804.938,384.802
H820.643
L825.496,399.738
L812.79,408.97
L800.084,399.738
L794.257,417.673
L809.513,428.757
L814.366,413.82
H830.072
L834.925,428.757
L822.219,437.988
L837.475,449.072
L785.584,486.772
L733.692,449.072
L748.948,437.988
L736.242,428.757
L741.095,413.82
H756.801
L761.654,428.757
L776.91,417.673
L771.083,399.738
L758.377,408.97
L745.671,399.738
L750.524,384.802
H766.23
L760.403,366.867
H741.545
L746.398,381.804
L733.692,391.035
L720.986,381.804
L725.84,366.867
H706.982
L701.155,384.802
H716.86
L721.714,399.738
L709.025,408.97
L696.302,399.738
L690.475,417.673
L638.584,379.972
L658.404,318.97
L673.66,330.055
L678.513,315.117
H694.219
L699.072,330.055
L686.366,339.285
L701.622,350.369
L716.86,339.285
L704.172,330.055
L709.025,315.117
H724.73
L729.584,330.055
L744.84,318.97
L739.012,301.035
L726.289,310.267
L713.6,301.035
L718.436,286.099
H734.159
L728.332,268.164
H709.474
L714.328,283.101
L701.622,292.333
L688.916,283.101
L693.769,268.164
H674.912
L694.733,207.162
H758.874
L753.059,225.097
H768.751
L773.605,240.034
L760.899,249.265
L748.193,240.034
L742.366,257.968
L757.622,269.052
L762.475,254.116
H778.18
L783.033,269.052
L770.328,278.284
L785.584,289.368
L800.84,278.284
L788.134,269.052
L792.987,254.116
H808.692
L813.546,269.052
L828.802,257.968
L822.974,240.034
L810.268,249.265
L797.562,240.034
L802.416,225.097
H818.121
L812.294,207.162
H876.435
L809.017,-0.326
H590.851
L610.672,60.6748
H591.814
L596.647,75.6123
L583.962,84.8438
L571.256,75.6123
L576.109,60.6748
H557.252
L551.424,78.6104
H567.13
L571.982,93.5469
L559.277,102.778
L546.571,93.5469
L540.744,111.481
L555.999,122.565
L560.853,107.629
H576.559
L581.392,122.565
L568.706,131.797
L583.962,142.881
L599.214,131.794
L586.512,122.565
L591.364,107.629
H607.07
L611.903,122.565
L627.159,111.481
L647,172.483
L595.089,210.184
L589.271,192.257
L589.281,192.25
L589.271,192.257
L576.559,201.481
L563.869,192.25
L568.706,177.313
H584.429
L578.602,159.378
H559.744
L564.576,174.315
L551.891,183.547
L539.186,174.315
L544.038,159.378
H525.181
L519.354,177.313
H535.059
L539.912,192.25
L527.206,201.481
L514.501,192.25
L508.673,210.184
L523.929,221.268
L528.782,206.332
H544.488
L549.32,221.268
L536.635,230.5
L551.891,241.583
L500,279.284
L448.109,241.583
L463.364,230.5
L450.659,221.268
L455.512,206.332
H471.218
L476.071,221.268
L491.327,210.184
L485.499,192.25
L472.794,201.481
L460.088,192.25
L464.941,177.313
H480.646
L474.819,159.378
H455.962
L460.815,174.315
L448.109,183.547
L435.403,174.315
L440.256,159.378
H421.398
L415.571,177.313
H431.277
L436.131,192.25
L423.424,201.481
L410.719,192.25
L404.891,210.184
L353,172.483
L372.82,111.481
L388.076,122.565
L392.93,107.629
H408.636
L413.488,122.565
L400.782,131.797
L416.038,142.881
L431.277,131.797
L418.589,122.565
L423.424,107.629
H439.147
L444.001,122.565
L459.256,111.481
L453.429,93.5469
L440.706,102.778
L428.018,93.5469
L432.853,78.6104
H448.576
L442.748,60.6748
H423.891
L428.744,75.6123
L416.038,84.8438
L403.332,75.6123
L408.186,60.6748
H389.329
L409.149,-0.326
H190.983
L123.565,207.162
H187.706
L181.879,225.097
H197.584
L202.438,240.034
L189.732,249.265
L177.026,240.034
L171.198,257.968
L186.455,269.052
L191.308,254.116
H207
L211.866,269.052
L199.161,278.284
L214.416,289.368
L229.673,278.284
L216.967,269.052
L221.82,254.116
H237.525
L242.379,269.052
L257.635,257.968
L251.807,240.034
L239.071,249.265
L226.395,240.034
L231.249,225.097
H246.941
L241.127,207.162
H305.267
L325.088,268.164
H306.231
L311.084,283.101
L298.378,292.333
L285.672,283.101
L290.526,268.164
H271.668
L265.841,286.099
H281.546
L286.4,301.035
L273.694,310.267
L260.988,301.035
L255.16,318.97
L270.416,330.055
L275.27,315.117
H290.975
L295.828,330.055
L283.122,339.285
L298.378,350.369
L313.634,339.285
L300.928,330.055
L305.781,315.117
H321.487
L326.34,330.055
L341.596,318.97
L361.416,379.972
L309.525,417.673
L303.698,399.738
L303.257,398.384
L293.018,366.867
H274.159
L279.012,381.804
L266.307,391.035
L253.602,381.804
L258.455,366.867
H239.597
L233.77,384.802
H249.476
L254.329,399.738
L241.623,408.97
L228.917,399.738
L223.09,417.673
L238.346,428.757
L243.199,413.82
H258.903
L263.756,428.757
L251.052,437.988
L266.307,449.072
L214.416,486.772
L162.525,449.072
L177.781,437.988
L165.075,428.757
L169.928,413.82
H185.634
L190.487,428.757
L205.743,417.673
L199.916,399.738
L187.21,408.97
L174.504,399.738
L179.357,384.802
H195.062
L189.235,366.867
H170.378
L175.231,381.804
L162.525,391.035
L149.819,381.804
L154.673,366.867
H135.815
L129.988,384.802
H145.693
L150.547,399.738
L137.841,408.97
L125.135,399.738
L119.307,417.673
L67.416,379.972
L0,587.46Z
M554.441,221.268
L559.277,206.332
H575
L579.832,221.268
L567.13,230.5
L554.441,221.268Z
M420.147,221.268
L425,206.332
H440.706
L445.559,221.268
L432.853,230.5
L420.147,221.268Z
M378.648,93.5469
L383.501,78.6104
H399.206
L404.06,93.5469
L391.354,102.778
L378.648,93.5469Z
M840.025,428.757
L844.861,413.82
H860.583
L865.438,428.757
L852.713,437.988
L840.025,428.757Z
M705.73,428.757
L710.583,413.82
H726.289
L731.142,428.757
L718.436,437.988
L705.73,428.757Z
M664.231,301.035
L669.084,286.099
H684.79
L689.643,301.035
L676.937,310.267
L664.231,301.035Z
M772.878,222.099
L777.731,207.162
H793.438
L798.29,222.099
L785.584,231.331
L772.878,222.099Z
M685.174,753.396
L700.429,764.48
L705.283,749.544
H720.986
L725.84,764.48
L713.135,773.712
L728.392,784.796
L743.63,773.712
L730.942,764.48
L735.777,749.544
H751.5
L756.354,764.48
L771.609,753.396
L765.782,735.462
L753.059,744.693
L740.37,735.462
L745.206,720.525
H760.899
L755.102,702.591
H736.242
L741.095,717.527
L728.392,726.759
L715.686,717.527
L720.539,702.591
H701.681
L695.854,720.525
H711.559
L716.413,735.462
L703.707,744.693
L691.001,735.462
L685.174,753.396Z
M596.647,764.48
L601.5,749.544
H617.206
L622.059,764.48
L609.353,773.712
L596.647,764.48Z
M555.147,636.759
L560.001,621.822
H575.706
L580.56,636.759
L567.854,645.99
L555.147,636.759Z
M663.794,557.823
L668.648,542.886
H684.353
L689.207,557.823
L676.5,567.054
L663.794,557.823Z
M772.441,636.759
L777.294,621.822
H792.987
L797.853,636.759
L785.147,645.99
L772.441,636.759Z
M228.391,753.396
L243.646,764.48
L248.5,749.544
H264.205
L269.058,764.48
L256.353,773.712
L271.608,784.796
L286.864,773.712
L274.159,764.48
L279.012,749.544
H294.717
L299.571,764.48
L314.826,753.396
L308.999,735.462
L296.293,744.693
L283.587,735.462
L288.441,720.525
H304.146
L298.319,702.591
H279.461
L284.315,717.527
L271.608,726.759
L258.903,717.527
L263.756,702.591
H244.898
L239.071,720.525
H254.776
L259.63,735.462
L246.941,744.693
L234.218,735.462
L228.391,753.396Z
M202.147,636.759
L207,621.822
H222.706
L227.559,636.759
L214.853,645.99
L202.147,636.759Z
M310.793,557.823
L315.647,542.886
H331.352
L336.206,557.823
L323.5,567.054
L310.793,557.823Z
M419.439,636.759
L424.294,621.822
H439.999
L444.852,636.759
L432.146,645.99
L419.439,636.759Z
M377.941,764.48
L382.777,749.544
H398.5
L403.332,764.48
L390.629,773.712
L377.941,764.48Z
M87.2373,318.97
L102.493,330.055
L107.346,315.117
H123.052
L127.905,330.055
L115.199,339.285
L130.455,350.369
L145.693,339.285
L133.005,330.055
L137.841,315.117
H153.562
L158.417,330.055
L173.673,318.97
L167.845,301.035
L155.122,310.267
L142.433,301.035
L147.269,286.099
H162.992
L157.165,268.164
H138.308
L143.161,283.101
L130.455,292.333
L117.749,283.101
L122.602,268.164
H103.744
L97.917,286.099
H113.623
L118.476,301.035
L105.77,310.267
L93.0645,301.035
L87.2373,318.97Z
M201.711,222.099
L206.564,207.162
H222.27
L227.123,222.099
L214.416,231.331
L201.711,222.099Z
M310.357,301.035
L315.21,286.099
H330.903
L335.769,301.035
L323.063,310.267
L310.357,301.035Z
M268.858,428.757
L273.694,413.82
H289.417
L294.27,428.757
L281.546,437.988
L268.858,428.757Z
M278.286,399.738
L283.122,384.802
H298.815
L303.257,398.384
L303.698,399.738
L290.975,408.97
L278.286,399.738Z
M134.562,428.757
L139.417,413.82
H155.122
L159.975,428.757
L147.269,437.988
L134.562,428.757Z
M826.327,318.97
L841.583,330.055
L846.438,315.117
H862.142
L866.995,330.055
L854.289,339.285
L869.545,350.369
L884.801,339.285
L872.095,330.055
L876.948,315.117
H892.654
L897.507,330.055
L912.763,318.97
L906.936,301.035
L894.23,310.267
L881.524,301.035
L886.377,286.099
H902.083
L896.256,268.164
H877.398
L882.251,283.101
L869.545,292.333
L856.839,283.101
L861.693,268.164
H842.835
L837.008,286.099
H852.713
L857.567,301.035
L844.861,310.267
L832.155,301.035
L826.327,318.97Z
M456.782,50.4785
L472.038,61.5645
L476.892,46.627
H492.597
L497.45,61.5645
L484.744,70.7949
L500,81.8789
L515.256,70.7949
L502.55,61.5645
L507.403,46.627
H523.108
L527.962,61.5645
L543.218,50.4785
L537.391,32.5449
L524.685,41.7764
L511.979,32.5449
L516.832,17.6084
H532.537
L526.71,-0.326
H507.853
L512.706,14.6113
L500,23.8418
L487.294,14.6113
L492.147,-0.326
H473.29
L467.463,17.6084
H483.168
L488.021,32.5449
L475.315,41.7764
L462.609,32.5449
L456.782,50.4785Z"/>
</g>
</svg>
